# xmcd
#
# Track frame offsets: 
#        182
#        10322
#        21220
#        36302
#        49885
#        63117
#        75172
#        84702
#        96390
#        109437
#        121707
#        139520
#        148707
#        171990
#
# Disc length: 2451 seconds
#
# Revision: 1
# Processed by: cddbd v1.5.2PL0 Copyright (c) Steve Scherf et al.
# Submitted via: ExactAudioCopyFreeDBPlugin 1.0
#
DISCID=b809910e
DTITLE=The Beatles - First
DYEAR=1985
DGENRE=Rock
TTITLE0=Ain't She Sweet
TTITLE1=Cry For A Shadow
TTITLE2=When The Saints Go Marching In
TTITLE3=Why
TTITLE4=If You Love Me, Baby
TTITLE5=What'd I Say
TTITLE6=Sweet Georgia Brown
TTITLE7=Let's Dance
TTITLE8=Ruby Baby
TTITLE9=My Bonnie
TTITLE10=Nobody's Child
TTITLE11=Ready Teddy
TTITLE12=Ya Ya (Parts 1 and 2)
TTITLE13=Kansas City
EXTD=
EXTT0=The Beatles
EXTT1=The Beatles
EXTT2=The Beatles with Tony Sheridan
EXTT3=The Beatles with Tony Sheridan
EXTT4=The Beatles with Tony Sheridan
EXTT5=Tony Sheridan and The Beat Brothers
EXTT6=The Beatles with Tony Sheridan
EXTT7=Tony Sheridan and The Beat Brothers
EXTT8=Tony Sheridan and The Beat Brothers
EXTT9=The Beatles with Tony Sheridan
EXTT10=The Beatles with Tony Sheridan
EXTT11=Tony Sheridan and The Beat Brothers
EXTT12=Tony Sheridan and The Beat Brothers
EXTT13=Tony Sheridan and The Beat Brothers
PLAYORDER=
